Hanif_Deep_5_0_grf.mot
version=1
nRows=37
nColumns=19
inDegrees=yes
endheader
time	right_ground_force_vx	right_ground_force_vy	right_ground_force_vz	right_ground_force_px	right_ground_force_py	right_ground_force_pz	right_ground_torque_x	right_ground_torque_y	right_ground_torque_z	left_ground_force_vx	left_ground_force_vy	left_ground_force_vz	left_ground_force_px	left_ground_force_py	left_ground_force_pz	left_ground_torque_x	left_ground_torque_y	left_ground_torque_z
0.875000	-9.410980	255.495000	34.438300	0.230689	0.000000	-1.412880	-23.803400	-1.639770	7.880570	3.456830	272.627000	-44.286900	0.216353	0.000000	-0.978953	20.633600	-5.315640	5.396670
0.880000	-9.447700	257.346000	33.704700	0.231432	0.000000	-1.411900	-24.226500	-1.679030	8.124160	3.211820	271.197000	-44.002100	0.217055	0.000000	-0.980228	20.874400	-5.371250	5.578400
0.885000	-10.592800	263.297000	32.925200	0.229781	0.000000	-1.413200	-24.445900	-1.641970	7.881420	3.576430	274.860000	-43.209000	0.217062	0.000000	-0.978911	20.789900	-5.307520	5.597360
0.890000	-10.161400	263.221000	32.445800	0.230749	0.000000	-1.410970	-25.028300	-1.591400	8.139740	3.320920	274.870000	-43.355800	0.218299	0.000000	-0.979470	20.946600	-5.470520	5.977730
0.895000	-10.571600	268.111000	31.655600	0.231766	0.000000	-1.413780	-24.745000	-1.495030	8.574080	3.425680	276.365000	-42.547600	0.218489	0.000000	-0.979482	21.063400	-5.404700	6.022580
0.900000	-10.569000	269.205000	32.013300	0.230548	0.000000	-1.412980	-25.063900	-1.400600	8.290360	3.377450	277.868000	-41.544200	0.219588	0.000000	-0.980183	21.374000	-5.422980	6.336250
0.905000	-10.688600	273.681000	31.934600	0.230278	0.000000	-1.414170	-25.160900	-1.226020	8.370780	2.931380	279.710000	-41.073100	0.220001	0.000000	-0.979034	21.204500	-5.402450	6.475790
0.910000	-10.503900	274.423000	32.208300	0.229924	0.000000	-1.414740	-25.071200	-1.190210	8.297660	2.869720	279.754000	-40.610900	0.220772	0.000000	-0.980030	21.486000	-5.572130	6.710420
0.915000	-9.763910	274.423000	32.740200	0.229393	0.000000	-1.415580	-24.843500	-0.992399	8.167880	3.243610	282.318000	-40.077800	0.221265	0.000000	-0.979638	21.565000	-5.599900	6.884010
0.920000	-8.773830	277.389000	33.178200	0.229151	0.000000	-1.417050	-24.707300	-0.710857	8.210270	2.913780	281.256000	-39.696400	0.222249	0.000000	-0.981274	21.949800	-5.632140	7.144980
0.925000	-8.661810	279.248000	34.358200	0.227313	0.000000	-1.416760	-24.958000	-0.529012	7.772620	2.929510	280.908000	-39.415100	0.223115	0.000000	-0.980978	21.838500	-5.655750	7.382640
0.930000	-7.951490	279.234000	33.803300	0.227295	0.000000	-1.417920	-24.630100	-0.386835	7.771350	2.971830	280.224000	-38.059300	0.222965	0.000000	-0.982236	22.136000	-5.753690	7.303430
0.935000	-7.411920	281.064000	34.330400	0.226643	0.000000	-1.417160	-25.007700	-0.138204	7.663630	2.526530	281.686000	-37.678300	0.223341	0.000000	-0.981197	21.968600	-5.825240	7.445280
0.940000	-6.421140	285.875000	35.132800	0.226284	0.000000	-1.418010	-25.190400	0.177151	7.718750	3.004670	282.831000	-36.964600	0.224231	0.000000	-0.981347	22.090000	-5.834160	7.702160
0.945000	-6.430700	288.109000	35.320200	0.225625	0.000000	-1.418680	-25.198300	0.300235	7.599450	3.004550	285.029000	-37.142000	0.224854	0.000000	-0.981293	22.246500	-5.890660	7.941280
0.950000	-6.087910	291.844000	35.409100	0.225478	0.000000	-1.419780	-25.200400	0.403460	7.657600	2.215230	285.797000	-35.939700	0.224760	0.000000	-0.980674	22.147600	-5.905540	7.909160
0.955000	-5.747240	294.049000	35.316300	0.224188	0.000000	-1.420270	-25.246800	0.637049	7.350720	2.839470	288.734000	-36.414000	0.224839	0.000000	-0.981214	22.517600	-5.991460	8.013670
0.960000	-5.853300	296.673000	35.236800	0.223797	0.000000	-1.421220	-25.191900	0.761285	7.309000	2.959770	289.500000	-35.687500	0.225375	0.000000	-0.981609	22.688300	-6.063970	8.176620
0.965000	-6.137900	299.677000	35.429100	0.223340	0.000000	-1.422070	-25.198500	0.903084	7.259940	2.513220	289.503000	-35.220600	0.225329	0.000000	-0.980986	22.518300	-6.096620	8.159300
0.970000	-6.983820	303.431000	35.096400	0.223454	0.000000	-1.423350	-25.134600	0.987791	7.392860	2.345810	291.357000	-34.582600	0.225176	0.000000	-0.980731	22.592000	-6.196670	8.152370
0.975000	-8.177370	304.564000	34.853100	0.222221	0.000000	-1.422580	-25.475000	1.121800	7.062640	2.192570	292.485000	-33.673000	0.225412	0.000000	-0.980811	22.706800	-6.197390	8.225110
0.980000	-8.469270	307.930000	34.778800	0.221391	0.000000	-1.423860	-25.367900	1.269110	6.892920	1.873390	292.548000	-32.479400	0.225952	0.000000	-0.981631	22.958600	-6.303650	8.369200
0.985000	-9.081710	308.728000	35.525300	0.221184	0.000000	-1.424170	-25.347900	1.359200	6.868700	1.700800	293.285000	-32.017900	0.226412	0.000000	-0.980499	22.688200	-6.392710	8.521940
0.990000	-9.083970	310.582000	35.891500	0.220086	0.000000	-1.424140	-25.513000	1.567160	6.588620	1.169260	295.114000	-31.553000	0.225549	0.000000	-0.981778	23.220300	-6.416980	8.302200
0.995000	-8.912400	310.600000	35.625600	0.220539	0.000000	-1.425950	-24.947600	1.491090	6.716170	0.473871	296.627000	-30.529500	0.226629	0.000000	-0.981003	23.126300	-6.311050	8.628180
1.000000	-8.906120	309.854000	35.535800	0.219469	0.000000	-1.426610	-24.690000	1.754620	6.394350	-0.222621	296.662000	-29.599700	0.226428	0.000000	-0.980984	23.140200	-6.425500	8.560930
1.005000	-8.643470	312.104000	35.451200	0.218245	0.000000	-1.427830	-24.483800	1.766710	6.045220	0.135716	300.682000	-29.165500	0.226076	0.000000	-0.980409	23.272300	-6.438080	8.537690
1.010000	-8.388680	313.935000	35.261800	0.217747	0.000000	-1.428150	-24.526600	1.973040	5.936580	-0.311104	299.969000	-28.882500	0.225577	0.000000	-0.980015	23.109400	-6.398740	8.361700
1.015000	-8.591420	312.478000	34.454800	0.217126	0.000000	-1.428890	-24.189600	2.129040	5.724320	-0.566801	300.706000	-28.511200	0.225619	0.000000	-0.981424	23.596100	-6.450370	8.388920
1.020000	-8.440790	312.474000	33.449900	0.216757	0.000000	-1.429190	-24.095500	2.300960	5.611830	-1.001810	301.466000	-27.949700	0.225805	0.000000	-0.980774	23.470200	-6.435670	8.450100
1.025000	-8.909140	314.322000	33.290900	0.215950	0.000000	-1.430640	-23.787700	2.384880	5.393440	-1.082090	302.219000	-27.219900	0.226023	0.000000	-0.980151	23.342700	-6.554350	8.526310
1.030000	-8.740430	316.559000	33.289900	0.215059	0.000000	-1.430700	-23.938000	2.543460	5.156620	-0.707251	304.053000	-26.610300	0.225194	0.000000	-0.979631	23.316900	-6.645480	8.305360
1.035000	-9.558110	316.593000	32.943200	0.215193	0.000000	-1.431450	-23.717500	2.599800	5.206850	-0.612440	305.521000	-26.614100	0.225470	0.000000	-0.979595	23.416100	-6.683110	8.426890
1.040000	-10.659000	317.353000	32.345000	0.215011	0.000000	-1.431920	-23.639900	2.603550	5.159270	-0.705560	307.724000	-26.167800	0.224150	0.000000	-0.980124	23.750000	-6.818310	8.069600
1.045000	-11.491300	318.851000	32.270200	0.213959	0.000000	-1.431850	-23.783900	2.616150	4.847360	-0.690339	312.157000	-25.533100	0.224624	0.000000	-0.979572	23.919300	-6.906530	8.307090
1.050000	-12.467500	317.075000	31.837900	0.214010	0.000000	-1.432310	-23.521200	2.638100	4.844260	-0.330890	311.394000	-25.990300	0.224917	0.000000	-0.980013	23.989600	-7.011880	8.400510
1.055000	-13.333400	320.037000	31.328100	0.212945	0.000000	-1.432970	-23.540700	2.633660	4.535590	-0.091090	313.222000	-26.283100	0.223711	0.000000	-0.978334	23.598500	-6.881960	8.057180
